# xmcd
#
# Track frame offsets: 
#        150
#        44190
#        81775
#        84560
#        116077
#        165405
#
# Disc length: 2530 seconds
#
# Revision: 6
# Processed by: cddbd v1.5.2PL0 Copyright (c) Steve Scherf et al.
# Submitted via: ExactAudioCopy v0.99pb5
#
DISCID=4709e006
DTITLE=Walter Trout - Live Trout [CD2)
DYEAR=2000
DGENRE=Blues/Rock
TTITLE0=Finally Gotten Over You
TTITLE1=Gotta Broken Heart
TTITLE2=Walter Speaks Again
TTITLE3=I Shall Be Released
TTITLE4=Serve Me Right To Suffer
TTITLE5=Good Enough To Eat
EXTD=YEAR: 2000
EXTT0=
EXTT1=
EXTT2=
EXTT3=
EXTT4=
EXTT5=
PLAYORDER=
